# File produced by Open Asset Import Library (http://www.assimp.sf.net)
# (assimp v3.1.187496374)

mtllib box.obj.mtl

# 8 vertex positions
v  2.97 0 -4.7
v  0 0 0
v  0 0 -4.7
v  2.97 0 0
v  2.97 2.07 0
v  0 2.07 0
v  0 2.07 -4.7
v  2.97 2.07 -4.7

# 0 UV coordinates

# 6 vertex normals
vn 0 -0.0254 0
vn -0 -0 0.0254
vn -0.0254 0 0
vn 0 0 -0.0254
vn 0.0254 0 0
vn 0 0.0254 0

# Mesh 'SketchUp_ID2' with 12 faces
g SketchUp_ID2
usemtl ID4
f  1//1 2//1 3//1
f  2//1 1//1 4//1
f  5//2 2//2 4//2
f  2//2 5//2 6//2
f  7//3 2//3 6//3
f  2//3 7//3 3//3
f  7//4 1//4 3//4
f  1//4 7//4 8//4
f  1//5 5//5 4//5
f  5//5 1//5 8//5
f  5//6 7//6 6//6
f  7//6 5//6 8//6

