# File produced by Open Asset Import Library (http://www.assimp.sf.net)
# (assimp v3.1.187496374)

mtllib figure.obj.mtl

# 16 vertex positions
v  2 2 0
v  -2 -2 0
v  2 -2 0
v  -2 2 0
v  2 -2 -1
v  2 2 -1
v  -1 2 -0.5
v  -2 2 -1
v  1 2 -0.5
v  -1 2 -1
v  1 2 -1
v  -2 -2 -1
v  1 -2 -0.5
v  1 -2 -1
v  -1 -2 -0.5
v  -1 -2 -1

# 22 UV coordinates
vt 6.56168 6.56168 0
vt -6.56168 -6.56168 0
vt 6.56168 -6.56168 0
vt -6.56168 6.56168 0
vt 3.28084 -6.56168 0
vt 0 6.56168 0
vt 0 -6.56168 0
vt 3.28084 6.56168 0
vt -6.56168 0 0
vt -3.28084 1.64042 0
vt -6.56168 3.28084 0
vt 6.56168 0 0
vt 3.28084 1.64042 0
vt -3.28084 3.28084 0
vt 3.28084 3.28084 0
vt 6.56168 3.28084 0
vt -3.28084 6.56168 0
vt -3.28084 -6.56168 0
vt -1.64042 -6.56168 0
vt -1.64042 6.56168 0
vt 1.64042 6.56168 0
vt 1.64042 -6.56168 0

# 6 vertex normals
vn 0 0 0.0254
vn 0.0254 0 0
vn 0 0.0254 0
vn -0.0254 0 0
vn -0 -0.0254 0
vn 0 0 -0.0254

# Mesh 'SketchUp_ID2' with 28 faces
g SketchUp_ID2
usemtl ID3
f  1/1/1 2/2/1 3/3/1
f  2/2/1 1/1/1 4/4/1
f  5/5/2 1/6/2 3/7/2
f  1/6/2 5/5/2 6/8/2
f  4/9/3 7/10/3 8/11/3
f  7/10/3 4/9/3 1/12/3
f  7/10/3 1/12/3 9/13/3
f  10/14/3 8/11/3 7/10/3
f  9/13/3 1/12/3 11/15/3
f  11/15/3 1/12/3 6/16/3
f  8/17/4 2/7/4 4/6/4
f  2/7/4 8/17/4 12/18/4
f  5/11/5 13/10/5 14/14/5
f  3/9/5 13/10/5 5/11/5
f  3/9/5 15/13/5 13/10/5
f  2/12/5 15/13/5 3/9/5
f  2/12/5 16/15/5 15/13/5
f  16/15/5 2/12/5 12/16/5
f  11/17/6 5/2/6 14/18/6
f  5/2/6 11/17/6 6/4/6
f  11/17/4 13/19/4 9/20/4
f  13/19/4 11/17/4 14/18/4
f  7/8/6 13/18/6 15/5/6
f  13/18/6 7/8/6 9/17/6
f  16/5/2 7/21/2 15/22/2
f  7/21/2 16/5/2 10/8/2
f  8/1/6 16/5/6 12/3/6
f  16/5/6 8/1/6 10/8/6

