# File produced by Open Asset Import Library (http://www.assimp.sf.net)
# (assimp v3.1.187496374)

mtllib four.obj.mtl

# 28 vertex positions
v  -0.0495435 0.236295 -0.427665
v  -0.0495435 -0.135353 0.572335
v  -0.0495435 -0.135353 -0.427665
v  -0.0495435 0.236295 0.572335
v  0.271018 -0.135353 -0.427665
v  0.271018 -0.135353 0.572335
v  -0.285176 -0.135353 0.572335
v  -0.172149 -0.237524 0.572335
v  -0.172149 -0.135353 0.572335
v  -0.285176 -0.237524 0.572335
v  -0.0546522 0.386359 0.572335
v  0.370635 -0.237524 0.572335
v  0.370635 -0.103424 0.572335
v  -0.0495435 -0.237524 0.572335
v  -0.0495435 -0.564472 0.572335
v  -0.172149 -0.564472 0.572335
v  -0.172149 0.386359 0.572335
v  -0.285176 -0.237524 -0.427665
v  -0.172149 -0.237524 -0.427665
v  -0.172149 -0.564472 -0.427665
v  -0.0495435 -0.564472 -0.427665
v  -0.0495435 -0.237524 -0.427665
v  0.370635 -0.237524 -0.427665
v  0.370635 -0.103424 -0.427665
v  -0.0546522 0.386359 -0.427665
v  -0.172149 0.386359 -0.427665
v  -0.172149 -0.135353 -0.427665
v  -0.285176 -0.135353 -0.427665

# 66 UV coordinates
vt -2.62719 3.28084 0
vt -1.40787 0 0
vt -1.40787 3.28084 0
vt -2.62719 0 0
vt -0.410629 3.28084 0
vt -1.46234 0 0
vt -0.410629 0 0
vt -1.46234 3.28084 0
vt 2.94451 0 0
vt 1.33429 3.28084 0
vt 1.33429 0 0
vt 2.94451 3.28084 0
vt -2.23541 1.40787 0
vt -1.86459 1.07266 0
vt -1.86459 1.40787 0
vt -2.23541 1.07266 0
vt -1.4791 3.11952 0
vt -0.0838018 1.07266 0
vt -0.0838018 1.51262 0
vt -0.410629 1.40787 0
vt -1.46234 2.62719 0
vt -1.46234 1.40787 0
vt -1.46234 1.07266 0
vt -1.86459 0 0
vt -1.86459 3.11952 0
vt 2.23541 3.28084 0
vt 1.86459 0 0
vt 2.23541 0 0
vt 1.86459 3.28084 0
vt 1.07266 0 0
vt 0 3.28084 0
vt 0 0 0
vt 1.07266 3.28084 0
vt 1.46234 0 0
vt 1.46234 3.28084 0
vt -1.07266 3.28084 0
vt -1.07266 0 0
vt 0.0838018 0 0
vt 0.0838018 3.28084 0
vt -1.51262 3.28084 0
vt -1.51262 0 0
vt -3.32522 3.28084 0
vt -1.19708 0 0
vt -1.19708 3.28084 0
vt -3.32522 0 0
vt -1.4791 3.28084 0
vt -1.4791 0 0
vt -1.86459 3.28084 0
vt 3.11952 0 0
vt 1.40787 3.28084 0
vt 1.40787 0 0
vt 3.11952 3.28084 0
vt -2.23541 0 0
vt -2.23541 3.28084 0
vt 2.23541 1.07266 0
vt 1.86459 1.40787 0
vt 1.86459 1.07266 0
vt 2.23541 1.40787 0
vt 1.46234 1.07266 0
vt 1.46234 1.40787 0
vt 1.46234 2.62719 0
vt 1.4791 3.11952 0
vt 1.86459 3.11952 0
vt 0.410629 1.40787 0
vt 0.0838018 1.07266 0
vt 0.0838018 1.51262 0

# 10 vertex normals
vn 0.0254 -6.57466e-33 1.26899e-17
vn -0.0254 6.57466e-33 -1.26899e-17
vn 9.39237e-34 0.0254 1.12799e-17
vn -9.39237e-34 -0.0254 -1.12799e-17
vn -0.0192337 -0.0165899 -1.69766e-17
vn 0.0192337 0.0165899 1.69766e-17
vn -1.26899e-17 -1.12799e-17 0.0254
vn 1.26899e-17 1.12799e-17 -0.0254
vn 0.0191788 0.0166533 1.69773e-17
vn -0.0191788 -0.0166533 -1.69773e-17

# Mesh '_4' with 112 faces
g _4
usemtl ID5
f  1/1/1 2/2/1 3/3/1
f  2/2/1 1/1/1 4/4/1
f  4/4/2 1/1/2 2/2/2
f  3/3/2 2/2/2 1/1/2
f  5/5/3 2/6/3 6/7/3
f  2/6/3 5/5/3 3/8/3
f  3/8/4 5/5/4 2/6/4
f  6/7/4 2/6/4 5/5/4
f  4/9/5 5/10/5 6/11/5
f  5/10/5 4/9/5 1/12/5
f  1/12/6 4/9/6 5/10/6
f  6/11/6 5/10/6 4/9/6
f  7/13/7 8/14/7 9/15/7
f  8/14/7 7/13/7 10/16/7
f  11/17/7 12/18/7 13/19/7
f  12/18/7 11/17/7 6/20/7
f  6/20/7 11/17/7 4/21/7
f  4/21/7 11/17/7 2/22/7
f  2/22/7 11/17/7 14/23/7
f  14/23/7 11/17/7 15/6/7
f  15/6/7 11/17/7 16/24/7
f  16/24/7 11/17/7 17/25/7
f  6/20/7 14/23/7 12/18/7
f  14/23/7 6/20/7 2/22/7
f  16/24/7 17/25/7 9/15/7
f  16/24/7 9/15/7 8/14/7
f  2/22/8 6/20/8 14/23/8
f  14/23/8 11/17/8 2/22/8
f  2/22/8 11/17/8 4/21/8
f  12/18/8 14/23/8 6/20/8
f  4/21/8 11/17/8 6/20/8
f  6/20/8 11/17/8 12/18/8
f  15/6/8 11/17/8 14/23/8
f  17/25/8 11/17/8 16/24/8
f  16/24/8 11/17/8 15/6/8
f  13/19/8 12/18/8 11/17/8
f  8/14/8 9/15/8 16/24/8
f  9/15/8 17/25/8 16/24/8
f  10/16/8 7/13/8 8/14/8
f  9/15/8 8/14/8 7/13/8
f  18/26/4 8/27/4 10/28/4
f  8/27/4 18/26/4 19/29/4
f  19/29/3 18/26/3 8/27/3
f  10/28/3 8/27/3 18/26/3
f  8/30/2 20/31/2 16/32/2
f  20/31/2 8/30/2 19/33/2
f  19/33/1 8/30/1 20/31/1
f  16/32/1 20/31/1 8/30/1
f  20/29/4 15/34/4 16/27/4
f  15/34/4 20/29/4 21/35/4
f  21/35/3 20/29/3 15/34/3
f  16/27/3 15/34/3 20/29/3
f  22/36/1 15/32/1 21/31/1
f  15/32/1 22/36/1 14/37/1
f  14/37/2 22/36/2 15/32/2
f  21/31/2 15/32/2 22/36/2
f  22/35/4 12/38/4 14/34/4
f  12/38/4 22/35/4 23/39/4
f  23/39/3 22/35/3 12/38/3
f  14/34/3 12/38/3 22/35/3
f  24/40/1 12/37/1 23/36/1
f  12/37/1 24/40/1 13/41/1
f  13/41/2 24/40/2 12/37/2
f  23/36/2 12/37/2 24/40/2
f  25/42/9 13/43/9 24/44/9
f  13/43/9 25/42/9 11/45/9
f  11/45/10 25/42/10 13/43/10
f  24/44/10 13/43/10 25/42/10
f  25/46/3 17/24/3 11/47/3
f  17/24/3 25/46/3 26/48/3
f  26/48/4 25/46/4 17/24/4
f  11/47/4 17/24/4 25/46/4
f  17/49/2 27/50/2 9/51/2
f  27/50/2 17/49/2 26/52/2
f  26/52/1 17/49/1 27/50/1
f  9/51/1 27/50/1 17/49/1
f  27/48/3 7/53/3 9/24/3
f  7/53/3 27/48/3 28/54/3
f  28/54/4 27/48/4 7/53/4
f  9/24/4 7/53/4 27/48/4
f  7/51/2 18/33/2 10/30/2
f  18/33/2 7/51/2 28/50/2
f  28/50/1 7/51/1 18/33/1
f  10/30/1 18/33/1 7/51/1
f  18/55/8 27/56/8 19/57/8
f  27/56/8 18/55/8 28/58/8
f  20/27/8 22/59/8 21/34/8
f  22/59/8 20/27/8 3/60/8
f  3/60/8 20/27/8 1/61/8
f  1/61/8 20/27/8 25/62/8
f  25/62/8 20/27/8 26/63/8
f  5/64/8 23/65/8 22/59/8
f  5/64/8 22/59/8 3/60/8
f  5/64/8 25/62/8 24/66/8
f  25/62/8 5/64/8 1/61/8
f  23/65/8 5/64/8 24/66/8
f  26/63/8 20/27/8 19/57/8
f  26/63/8 19/57/8 27/56/8
f  3/60/7 22/59/7 5/64/7
f  1/61/7 20/27/7 3/60/7
f  3/60/7 20/27/7 22/59/7
f  22/59/7 23/65/7 5/64/7
f  21/34/7 22/59/7 20/27/7
f  24/66/7 5/64/7 23/65/7
f  1/61/7 5/64/7 25/62/7
f  24/66/7 25/62/7 5/64/7
f  25/62/7 20/27/7 1/61/7
f  26/63/7 20/27/7 25/62/7
f  27/56/7 19/57/7 26/63/7
f  19/57/7 20/27/7 26/63/7
f  28/58/7 18/55/7 27/56/7
f  19/57/7 27/56/7 18/55/7

