# File produced by Open Asset Import Library (http://www.assimp.sf.net)
# (assimp v3.1.187496374)

mtllib five.obj.mtl

# 90 vertex positions
v  0.247036 0.485158 0.499843
v  0.123792 0.373408 0.499843
v  0.247036 -0.00462505 0.499843
v  -0.274676 0.485158 0.499843
v  0.163383 0.0103815 0.499843
v  -0.274676 0.373408 0.499843
v  0.123792 0.120535 0.499843
v  0.059296 0.0183634 0.499843
v  0.0784532 0.124366 0.499843
v  0.0375849 0.125643 0.499843
v  -0.0297843 0.00846559 0.499843
v  -0.0856592 0.11351 0.499843
v  -0.0665818 -0.00502411 0.499843
v  -0.0971535 -0.0256976 0.499843
v  -0.135148 0.0956305 0.499843
v  -0.120222 -0.049644 0.499843
v  -0.137064 -0.0793376 0.499843
v  -0.182722 0.0662562 0.499843
v  -0.147361 -0.116375 0.499843
v  -0.150793 -0.162352 0.499843
v  -0.151671 -0.43103 0.499843
v  -0.19677 -0.392237 0.499843
v  -0.224468 0.0260264 0.499843
v  -0.138341 -0.251113 0.499843
v  -0.0968342 -0.460564 0.499843
v  -0.102262 -0.316886 0.499843
v  -0.0335358 -0.479242 0.499843
v  -0.0396821 -0.361266 0.499843
v  -0.0735264 -0.343306 0.499843
v  0.0369461 -0.485468 0.499843
v  0.0350304 -0.374995 0.499843
v  0.104714 -0.481716 0.499843
v  0.105273 -0.367652 0.499843
v  0.171365 -0.470461 0.499843
v  0.174239 -0.346898 0.499843
v  0.285988 -0.431189 0.499843
v  0.277048 -0.296451 0.499843
v  0.234903 -0.321036 0.499843
v  0.285988 -0.296451 0.499843
v  -0.231971 -0.345461 0.499843
v  -0.255199 -0.0231434 0.499843
v  -0.258392 -0.290704 0.499843
v  -0.274117 -0.0849251 0.499843
v  -0.274915 -0.229402 0.499843
v  -0.280423 -0.16299 0.499843
v  -0.274915 -0.229402 -0.500157
v  -0.280423 -0.16299 -0.500157
v  -0.258392 -0.290704 -0.500157
v  -0.231971 -0.345461 -0.500157
v  -0.19677 -0.392237 -0.500157
v  -0.151671 -0.43103 -0.500157
v  -0.0968342 -0.460564 -0.500157
v  -0.0335358 -0.479242 -0.500157
v  0.0369461 -0.485468 -0.500157
v  0.104714 -0.481716 -0.500157
v  0.171365 -0.470461 -0.500157
v  0.285988 -0.431189 -0.500157
v  0.285988 -0.296451 -0.500157
v  0.277048 -0.296451 -0.500157
v  0.234903 -0.321036 -0.500157
v  0.174239 -0.346898 -0.500157
v  0.105273 -0.367652 -0.500157
v  0.0350304 -0.374995 -0.500157
v  -0.0396821 -0.361266 -0.500157
v  -0.0735264 -0.343306 -0.500157
v  -0.102262 -0.316886 -0.500157
v  -0.138341 -0.251113 -0.500157
v  -0.150793 -0.162352 -0.500157
v  -0.147361 -0.116375 -0.500157
v  -0.137064 -0.0793376 -0.500157
v  -0.120222 -0.049644 -0.500157
v  -0.0971535 -0.0256976 -0.500157
v  -0.0665818 -0.00502411 -0.500157
v  -0.0297843 0.00846559 -0.500157
v  0.059296 0.0183634 -0.500157
v  0.163383 0.0103815 -0.500157
v  0.247036 -0.00462505 -0.500157
v  0.247036 0.485158 -0.500157
v  -0.274676 0.485158 -0.500157
v  -0.274676 0.373408 -0.500157
v  0.123792 0.373408 -0.500157
v  0.123792 0.120535 -0.500157
v  0.0784532 0.124366 -0.500157
v  0.0375849 0.125643 -0.500157
v  -0.0856592 0.11351 -0.500157
v  -0.135148 0.0956305 -0.500157
v  -0.182722 0.0662562 -0.500157
v  -0.224468 0.0260264 -0.500157
v  -0.255199 -0.0231434 -0.500157
v  -0.274117 -0.0849251 -0.500157

# 268 UV coordinates
vt -0.387583 3.18447 0
vt -0.791927 2.81783 0
vt -0.387583 1.57757 0
vt -2.09924 3.18447 0
vt -0.662034 1.6268 0
vt -2.09924 2.81783 0
vt -0.791927 1.9882 0
vt -1.00353 1.65299 0
vt -0.940675 2.00077 0
vt -1.07476 2.00496 0
vt -1.29578 1.62052 0
vt -1.4791 1.96515 0
vt -1.41651 1.57626 0
vt -1.51681 1.50843 0
vt -1.64147 1.90649 0
vt -1.5925 1.42987 0
vt -1.64775 1.33245 0
vt -1.79755 1.81012 0
vt -1.68154 1.21094 0
vt -1.6928 1.06009 0
vt -1.69568 0.178603 0
vt -1.84364 0.305876 0
vt -1.93451 1.67813 0
vt -1.65194 0.768881 0
vt -1.51576 0.0817067 0
vt -1.53357 0.553092 0
vt -1.30809 0.0204267 0
vt -1.32826 0.407486 0
vt -1.4393 0.466409 0
vt -1.07685 0 0
vt -1.08314 0.362443 0
vt -0.854516 0.0123084 0
vt -0.852683 0.386536 0
vt -0.635846 0.0492335 0
vt -0.626418 0.454625 0
vt -0.259786 0.178079 0
vt -0.289116 0.620133 0
vt -0.427389 0.539474 0
vt -0.259786 0.620133 0
vt -1.95913 0.459338 0
vt -2.03534 1.51681 0
vt -2.04581 0.638989 0
vt -2.0974 1.31412 0
vt -2.10002 0.840113 0
vt -2.11809 1.058 0
vt 1.22944 0 0
vt 1.0108 3.28084 0
vt 1.0108 0 0
vt 1.22944 3.28084 0
vt 1.35768 0 0
vt 1.14938 3.28084 0
vt 1.14938 0 0
vt 1.35768 3.28084 0
vt 1.46454 0 0
vt 1.26507 3.28084 0
vt 1.26507 0 0
vt 1.46454 3.28084 0
vt 1.54506 0 0
vt 1.353 3.28084 0
vt 1.353 0 0
vt 1.54506 3.28084 0
vt 1.59716 3.28084 0
vt 1.40199 0 0
vt 1.59716 0 0
vt 1.40199 3.28084 0
vt 1.57761 3.28084 0
vt 1.37327 0 0
vt 1.57761 0 0
vt 1.37327 3.28084 0
vt 1.47692 3.28084 0
vt 1.26039 0 0
vt 1.47692 0 0
vt 1.26039 3.28084 0
vt 1.30482 3.28084 0
vt 1.07268 0 0
vt 1.30482 0 0
vt 1.07268 3.28084 0
vt 1.07521 3.28084 0
vt 0.85253 0 0
vt 1.07521 0 0
vt 0.85253 3.28084 0
vt 0.840538 3.28084 0
vt 0.618772 0 0
vt 0.840538 0 0
vt 0.618772 3.28084 0
vt 0.585562 3.28084 0
vt 0.188042 0 0
vt 0.585562 0 0
vt 0.188042 3.28084 0
vt -0.620133 3.28084 0
vt -0.178079 0 0
vt -0.178079 3.28084 0
vt -0.620133 0 0
vt -0.259786 3.28084 0
vt -0.289116 0 0
vt -0.259786 0 0
vt -0.289116 3.28084 0
vt 0.0627347 3.28084 0
vt -0.0973444 0 0
vt 0.0627347 0 0
vt -0.0973444 3.28084 0
vt -0.18159 3.28084 0
vt -0.397951 0 0
vt -0.18159 0 0
vt -0.397951 3.28084 0
vt -0.468842 3.28084 0
vt -0.705129 0 0
vt -0.468842 0 0
vt -0.705129 3.28084 0
vt -0.80787 3.28084 0
vt -1.03958 0 0
vt -0.80787 0 0
vt -1.03958 3.28084 0
vt -1.13081 3.28084 0
vt -1.38003 0 0
vt -1.13081 0 0
vt -1.38003 3.28084 0
vt -1.3643 3.28084 0
vt -1.49 0 0
vt -1.3643 0 0
vt -1.49 3.28084 0
vt -1.3752 3.28084 0
vt -1.50327 0 0
vt -1.3752 0 0
vt -1.50327 3.28084 0
vt -1.4686 3.28084 0
vt -1.22248 0 0
vt -1.22248 3.28084 0
vt -1.4686 0 0
vt -1.28499 3.28084 0
vt -0.990925 0 0
vt -0.990925 3.28084 0
vt -1.28499 0 0
vt -1.08239 3.28084 0
vt -0.93113 0 0
vt -0.93113 3.28084 0
vt -1.08239 0 0
vt -0.842395 3.28084 0
vt -0.716273 0 0
vt -0.716273 3.28084 0
vt -0.842395 0 0
vt -0.458046 3.28084 0
vt -0.346046 0 0
vt -0.346046 3.28084 0
vt -0.458046 0 0
vt -0.0340189 3.28084 0
vt 0.0750696 0 0
vt 0.0750696 3.28084 0
vt -0.0340189 0 0
vt 0.411494 3.28084 0
vt 0.290412 0 0
vt 0.411494 0 0
vt 0.290412 3.28084 0
vt 0.787421 3.28084 0
vt 0.658837 0 0
vt 0.787421 0 0
vt 0.658837 3.28084 0
vt 1.1089 3.28084 0
vt 0.814846 0 0
vt 1.1089 0 0
vt 0.814846 3.28084 0
vt 1.12698 3.28084 0
vt 0.784486 0 0
vt 1.12698 0 0
vt 0.784486 3.28084 0
vt 0.938878 3.28084 0
vt 0.660046 0 0
vt 0.938878 0 0
vt 0.660046 3.28084 0
vt -3.18447 3.28084 0
vt -1.57757 0 0
vt -1.57757 3.28084 0
vt -3.18447 0 0
vt -0.387583 3.28084 0
vt -2.09924 0 0
vt -0.387583 0 0
vt -2.09924 3.28084 0
vt 3.18447 0 0
vt 2.81783 3.28084 0
vt 2.81783 0 0
vt 3.18447 3.28084 0
vt 2.09924 3.28084 0
vt 0.791927 0 0
vt 2.09924 0 0
vt 0.791927 3.28084 0
vt 1.9882 3.28084 0
vt 1.9882 0 0
vt -0.956534 3.28084 0
vt -1.10581 0 0
vt -0.956534 0 0
vt -1.10581 3.28084 0
vt -1.00271 3.28084 0
vt -1.13686 0 0
vt -1.00271 0 0
vt -1.13686 3.28084 0
vt -0.873158 3.28084 0
vt -1.27946 0 0
vt -0.873158 0 0
vt -1.27946 3.28084 0
vt -0.723349 3.28084 0
vt -0.895987 0 0
vt -0.723349 0 0
vt -0.895987 3.28084 0
vt -0.395065 3.28084 0
vt -0.578501 0 0
vt -0.395065 0 0
vt -0.578501 3.28084 0
vt -0.0382998 3.28084 0
vt -0.22851 0 0
vt -0.0382998 0 0
vt -0.22851 3.28084 0
vt 0.397763 0 0
vt 0.207528 3.28084 0
vt 0.207528 0 0
vt 0.397763 3.28084 0
vt 0.854431 0 0
vt 0.642446 3.28084 0
vt 0.642446 0 0
vt 0.854431 3.28084 0
vt 1.14098 0 0
vt 0.884025 3.28084 0
vt 0.884025 0 0
vt 1.14098 3.28084 0
vt 0.635846 0.0492335 0
vt 0.259786 0.620133 0
vt 0.259786 0.178079 0
vt 0.289116 0.620133 0
vt 0.427389 0.539474 0
vt 0.626418 0.454625 0
vt 0.852683 0.386536 0
vt 0.854516 0.0123084 0
vt 1.08314 0.362443 0
vt 1.07685 0 0
vt 1.30809 0.0204267 0
vt 1.32826 0.407486 0
vt 1.51576 0.0817067 0
vt 1.4393 0.466409 0
vt 1.53357 0.553092 0
vt 1.69568 0.178603 0
vt 1.65194 0.768881 0
vt 1.6928 1.06009 0
vt 1.79755 1.81012 0
vt 1.84364 0.305876 0
vt 1.68154 1.21094 0
vt 1.64147 1.90649 0
vt 1.64775 1.33245 0
vt 1.93451 1.67813 0
vt 1.95913 0.459338 0
vt 2.03534 1.51681 0
vt 2.04581 0.638989 0
vt 2.0974 1.31412 0
vt 2.10002 0.840113 0
vt 2.11809 1.058 0
vt 1.5925 1.42987 0
vt 1.51681 1.50843 0
vt 1.4791 1.96515 0
vt 1.41651 1.57626 0
vt 1.07476 2.00496 0
vt 1.29578 1.62052 0
vt 0.940675 2.00077 0
vt 1.00353 1.65299 0
vt 0.791927 1.9882 0
vt 0.662034 1.6268 0
vt 0.791927 2.81783 0
vt 0.387583 3.18447 0
vt 0.387583 1.57757 0
vt 2.09924 3.18447 0
vt 2.09924 2.81783 0

# 86 vertex normals
vn 9.16489e-18 9.86988e-18 0.0254
vn -9.16489e-18 -9.86988e-18 -0.0254
vn -0.0254 -2.71938e-05 9.17545e-18
vn -0.0250208 -0.00437254 1.07271e-17
vn 0.0254 2.71938e-05 -9.17545e-18
vn 0.0250208 0.00437254 -1.07271e-17
vn -0.0238037 -0.00886249 1.20327e-17
vn 0.0238037 0.00886249 -1.20327e-17
vn -0.0216893 -0.0132188 1.29625e-17
vn 0.0216893 0.0132188 -1.29625e-17
vn -0.0185367 -0.0173652 1.34362e-17
vn 0.0185367 0.0173652 -1.34362e-17
vn -0.014388 -0.0209319 1.33252e-17
vn 0.014388 0.0209319 -1.33252e-17
vn -0.00966814 -0.023488 1.26154e-17
vn 0.00966814 0.023488 -1.26154e-17
vn -0.00473521 -0.0249547 1.14054e-17
vn 0.00473521 0.0249547 -1.14054e-17
vn -0.000416589 -0.0253966 1.00189e-17
vn 0.000416589 0.0253966 -1.00189e-17
vn 0.00282102 -0.0252429 8.79093e-18
vn -0.00282102 0.0252429 -8.79093e-18
vn 0.00625167 -0.0246186 7.31052e-18
vn -0.00625167 0.0246186 -7.31052e-18
vn 0.0082327 -0.0240288 6.36652e-18
vn -0.0082327 0.0240288 -6.36652e-18
vn 0.0254 -1.87848e-33 -9.16489e-18
vn -0.0254 1.87848e-33 9.16489e-18
vn -1.6828e-33 0.0254 -9.86988e-18
vn 1.6828e-33 -0.0254 9.86988e-18
vn -0.0127983 0.02194 -3.90747e-18
vn -0.011402 0.022697 -4.70549e-18
vn 0.011402 -0.022697 4.70549e-18
vn 0.0127983 -0.02194 3.90747e-18
vn -0.0086534 0.0238805 -6.1571e-18
vn 0.0086534 -0.0238805 6.1571e-18
vn -0.00500229 0.0249026 -7.87165e-18
vn 0.00500229 -0.0249026 7.87165e-18
vn 0.000984843 0.0253809 -1.02178e-17
vn -0.000984843 -0.0253809 1.02178e-17
vn 0.00834603 0.0239897 -1.23333e-17
vn -0.00834603 -0.0239897 1.23333e-17
vn 0.0146685 0.0207363 -1.33504e-17
vn -0.0146685 -0.0207363 1.33504e-17
vn 0.019995 0.015664 -1.33013e-17
vn -0.019995 -0.015664 1.33013e-17
vn 0.0241062 0.00800328 -1.18079e-17
vn -0.0241062 -0.00800328 1.18079e-17
vn 0.0253866 0.000823623 -9.48011e-18
vn -0.0253866 -0.000823623 9.48011e-18
vn 0.0250215 -0.00436836 -7.33089e-18
vn -0.0250215 0.00436836 7.33089e-18
vn 0.0234581 -0.00974042 -4.67931e-18
vn -0.0234581 0.00974042 4.67931e-18
vn 0.0203529 -0.0151961 -1.43892e-18
vn -0.0203529 0.0151961 1.43892e-18
vn 0.0163502 -0.0194378 1.65359e-18
vn -0.0163502 0.0194378 -1.65359e-18
vn 0.011571 -0.0226113 4.61119e-18
vn -0.011571 0.0226113 -4.61119e-18
vn 0.00581583 -0.0247252 7.50919e-18
vn -0.00581583 0.0247252 -7.50919e-18
vn 0.000433302 -0.0253963 9.7121e-18
vn -0.000433302 0.0253963 -9.7121e-18
vn -0.00321762 -0.0251954 1.09514e-17
vn 0.00321762 0.0251954 -1.09514e-17
vn -0.0044849 -0.0250009 1.13331e-17
vn 0.0044849 0.0250009 -1.13331e-17
vn 0.00213886 0.0253098 -1.06066e-17
vn 0.00146663 0.0253576 -1.03826e-17
vn -0.00146663 -0.0253576 1.03826e-17
vn -0.00213886 -0.0253098 1.06066e-17
vn -0.000849339 0.0253858 -9.5579e-18
vn 0.000849339 -0.0253858 9.5579e-18
vn -0.00560284 0.0247743 -7.60514e-18
vn 0.00560284 -0.0247743 7.60514e-18
vn -0.0110464 0.0228722 -4.90185e-18
vn 0.0110464 -0.0228722 4.90185e-18
vn -0.0155737 0.0200654 -2.17764e-18
vn 0.0155737 -0.0200654 2.17764e-18
vn -0.0197304 0.015996 9.03484e-19
vn 0.0197304 -0.015996 -9.03484e-19
vn -0.0231103 0.0105393 4.24337e-18
vn 0.0231103 -0.0105393 -4.24337e-18
vn -0.0249483 0.00476881 7.14886e-18
vn 0.0249483 -0.00476881 -7.14886e-18

# Mesh '_5_ID4' with 352 faces
g _5_ID4
usemtl ID5
f  1/1/1 2/2/1 3/3/1
f  2/2/1 1/1/1 4/4/1
f  3/3/1 2/2/1 5/5/1
f  2/2/1 4/4/1 6/6/1
f  7/7/1 5/5/1 2/2/1
f  5/5/1 7/7/1 8/8/1
f  8/8/1 7/7/1 9/9/1
f  8/8/1 9/9/1 10/10/1
f  8/8/1 10/10/1 11/11/1
f  11/11/1 10/10/1 12/12/1
f  11/11/1 12/12/1 13/13/1
f  13/13/1 12/12/1 14/14/1
f  14/14/1 12/12/1 15/15/1
f  14/14/1 15/15/1 16/16/1
f  16/16/1 15/15/1 17/17/1
f  17/17/1 15/15/1 18/18/1
f  17/17/1 18/18/1 19/19/1
f  19/19/1 18/18/1 20/20/1
f  20/20/1 18/18/1 21/21/1
f  21/21/1 18/18/1 22/22/1
f  22/22/1 18/18/1 23/23/1
f  21/21/1 24/24/1 20/20/1
f  25/25/1 26/26/1 21/21/1
f  21/21/1 26/26/1 24/24/1
f  27/27/1 28/28/1 25/25/1
f  25/25/1 28/28/1 29/29/1
f  25/25/1 29/29/1 26/26/1
f  30/30/1 31/31/1 27/27/1
f  27/27/1 31/31/1 28/28/1
f  32/32/1 31/31/1 30/30/1
f  32/32/1 33/33/1 31/31/1
f  34/34/1 33/33/1 32/32/1
f  34/34/1 35/35/1 33/33/1
f  36/36/1 37/37/1 34/34/1
f  34/34/1 37/37/1 38/38/1
f  34/34/1 38/38/1 35/35/1
f  37/37/1 36/36/1 39/39/1
f  22/22/1 23/23/1 40/40/1
f  40/40/1 23/23/1 41/41/1
f  40/40/1 41/41/1 42/42/1
f  42/42/1 41/41/1 43/43/1
f  42/42/1 43/43/1 44/44/1
f  44/44/1 43/43/1 45/45/1
f  20/20/2 24/24/2 21/21/2
f  21/21/2 18/18/2 20/20/2
f  20/20/2 18/18/2 19/19/2
f  24/24/2 26/26/2 21/21/2
f  21/21/2 26/26/2 25/25/2
f  22/22/2 18/18/2 21/21/2
f  23/23/2 18/18/2 22/22/2
f  19/19/2 18/18/2 17/17/2
f  18/18/2 15/15/2 17/17/2
f  40/40/2 23/23/2 22/22/2
f  41/41/2 23/23/2 40/40/2
f  42/42/2 41/41/2 40/40/2
f  43/43/2 41/41/2 42/42/2
f  44/44/2 43/43/2 42/42/2
f  45/45/2 43/43/2 44/44/2
f  17/17/2 15/15/2 16/16/2
f  16/16/2 15/15/2 14/14/2
f  15/15/2 12/12/2 14/14/2
f  14/14/2 12/12/2 13/13/2
f  13/13/2 12/12/2 11/11/2
f  12/12/2 10/10/2 11/11/2
f  11/11/2 10/10/2 8/8/2
f  10/10/2 9/9/2 8/8/2
f  9/9/2 7/7/2 8/8/2
f  8/8/2 7/7/2 5/5/2
f  2/2/2 5/5/2 7/7/2
f  5/5/2 2/2/2 3/3/2
f  6/6/2 4/4/2 2/2/2
f  4/4/2 1/1/2 2/2/2
f  3/3/2 2/2/2 1/1/2
f  26/26/2 29/29/2 25/25/2
f  29/29/2 28/28/2 25/25/2
f  25/25/2 28/28/2 27/27/2
f  28/28/2 31/31/2 27/27/2
f  27/27/2 31/31/2 30/30/2
f  30/30/2 31/31/2 32/32/2
f  31/31/2 33/33/2 32/32/2
f  32/32/2 33/33/2 34/34/2
f  33/33/2 35/35/2 34/34/2
f  35/35/2 38/38/2 34/34/2
f  38/38/2 37/37/2 34/34/2
f  34/34/2 37/37/2 36/36/2
f  39/39/2 36/36/2 37/37/2
f  45/46/3 46/47/4 44/48/4
f  46/47/4 45/46/3 47/49/3
f  47/49/5 45/46/5 46/47/6
f  44/48/6 46/47/6 45/46/5
f  44/50/4 48/51/7 42/52/7
f  48/51/7 44/50/4 46/53/4
f  46/53/6 44/50/6 48/51/8
f  42/52/8 48/51/8 44/50/6
f  42/54/7 49/55/9 40/56/9
f  49/55/9 42/54/7 48/57/7
f  48/57/8 42/54/8 49/55/10
f  40/56/10 49/55/10 42/54/8
f  40/58/9 50/59/11 22/60/11
f  50/59/11 40/58/9 49/61/9
f  49/61/10 40/58/10 50/59/12
f  22/60/12 50/59/12 40/58/10
f  50/62/11 21/63/13 22/64/11
f  21/63/13 50/62/11 51/65/13
f  51/65/14 50/62/12 21/63/14
f  22/64/12 21/63/14 50/62/12
f  51/66/13 25/67/15 21/68/13
f  25/67/15 51/66/13 52/69/15
f  52/69/16 51/66/14 25/67/16
f  21/68/14 25/67/16 51/66/14
f  52/70/15 27/71/17 25/72/15
f  27/71/17 52/70/15 53/73/17
f  53/73/18 52/70/16 27/71/18
f  25/72/16 27/71/18 52/70/16
f  53/74/17 30/75/19 27/76/17
f  30/75/19 53/74/17 54/77/19
f  54/77/20 53/74/18 30/75/20
f  27/76/18 30/75/20 53/74/18
f  54/78/19 32/79/21 30/80/19
f  32/79/21 54/78/19 55/81/21
f  55/81/22 54/78/20 32/79/22
f  30/80/20 32/79/22 54/78/20
f  55/82/21 34/83/23 32/84/21
f  34/83/23 55/82/21 56/85/23
f  56/85/24 55/82/22 34/83/24
f  32/84/22 34/83/24 55/82/22
f  56/86/23 36/87/25 34/88/23
f  36/87/25 56/86/23 57/89/25
f  57/89/26 56/86/24 36/87/26
f  34/88/24 36/87/26 56/86/24
f  58/90/27 36/91/27 57/92/27
f  36/91/27 58/90/27 39/93/27
f  39/93/28 58/90/28 36/91/28
f  57/92/28 36/91/28 58/90/28
f  58/94/29 37/95/29 39/96/29
f  37/95/29 58/94/29 59/97/29
f  59/97/30 58/94/30 37/95/30
f  39/96/30 37/95/30 58/94/30
f  59/98/31 38/99/32 37/100/31
f  38/99/32 59/98/31 60/101/32
f  60/101/33 59/98/34 38/99/33
f  37/100/34 38/99/33 59/98/34
f  60/102/32 35/103/35 38/104/32
f  35/103/35 60/102/32 61/105/35
f  61/105/36 60/102/33 35/103/36
f  38/104/33 35/103/36 60/102/33
f  61/106/35 33/107/37 35/108/35
f  33/107/37 61/106/35 62/109/37
f  62/109/38 61/106/36 33/107/38
f  35/108/36 33/107/38 61/106/36
f  62/110/37 31/111/39 33/112/37
f  31/111/39 62/110/37 63/113/39
f  63/113/40 62/110/38 31/111/40
f  33/112/38 31/111/40 62/110/38
f  63/114/39 28/115/41 31/116/39
f  28/115/41 63/114/39 64/117/41
f  64/117/42 63/114/40 28/115/42
f  31/116/40 28/115/42 63/114/40
f  64/118/41 29/119/43 28/120/41
f  29/119/43 64/118/41 65/121/43
f  65/121/44 64/118/42 29/119/44
f  28/120/42 29/119/44 64/118/42
f  65/122/43 26/123/45 29/124/43
f  26/123/45 65/122/43 66/125/45
f  66/125/46 65/122/44 26/123/46
f  29/124/44 26/123/46 65/122/44
f  67/126/47 26/127/45 66/128/45
f  26/127/45 67/126/47 24/129/47
f  24/129/48 67/126/48 26/127/46
f  66/128/46 26/127/46 67/126/48
f  68/130/49 24/131/47 67/132/47
f  24/131/47 68/130/49 20/133/49
f  20/133/50 68/130/50 24/131/48
f  67/132/48 24/131/48 68/130/50
f  69/134/51 20/135/49 68/136/49
f  20/135/49 69/134/51 19/137/51
f  19/137/52 69/134/52 20/135/50
f  68/136/50 20/135/50 69/134/52
f  70/138/53 19/139/51 69/140/51
f  19/139/51 70/138/53 17/141/53
f  17/141/54 70/138/54 19/139/52
f  69/140/52 19/139/52 70/138/54
f  71/142/55 17/143/53 70/144/53
f  17/143/53 71/142/55 16/145/55
f  16/145/56 71/142/56 17/143/54
f  70/144/54 17/143/54 71/142/56
f  72/146/57 16/147/55 71/148/55
f  16/147/55 72/146/57 14/149/57
f  14/149/58 72/146/58 16/147/56
f  71/148/56 16/147/56 72/146/58
f  72/150/57 13/151/59 14/152/57
f  13/151/59 72/150/57 73/153/59
f  73/153/60 72/150/58 13/151/60
f  14/152/58 13/151/60 72/150/58
f  73/154/59 11/155/61 13/156/59
f  11/155/61 73/154/59 74/157/61
f  74/157/62 73/154/60 11/155/62
f  13/156/60 11/155/62 73/154/60
f  74/158/61 8/159/63 11/160/61
f  8/159/63 74/158/61 75/161/63
f  75/161/64 74/158/62 8/159/64
f  11/160/62 8/159/64 74/158/62
f  75/162/63 5/163/65 8/164/63
f  5/163/65 75/162/63 76/165/65
f  76/165/66 75/162/64 5/163/66
f  8/164/64 5/163/66 75/162/64
f  76/166/65 3/167/67 5/168/65
f  3/167/67 76/166/65 77/169/67
f  77/169/68 76/166/66 3/167/68
f  5/168/66 3/167/68 76/166/66
f  78/170/27 3/171/27 77/172/27
f  3/171/27 78/170/27 1/173/27
f  1/173/28 78/170/28 3/171/28
f  77/172/28 3/171/28 78/170/28
f  78/174/29 4/175/29 1/176/29
f  4/175/29 78/174/29 79/177/29
f  79/177/30 78/174/30 4/175/30
f  1/176/30 4/175/30 78/174/30
f  4/178/28 80/179/28 6/180/28
f  80/179/28 4/178/28 79/181/28
f  79/181/27 4/178/27 80/179/27
f  6/180/27 80/179/27 4/178/27
f  80/182/30 2/183/30 6/184/30
f  2/183/30 80/182/30 81/185/30
f  81/185/29 80/182/29 2/183/29
f  6/184/29 2/183/29 80/182/29
f  2/180/28 82/186/28 7/187/28
f  82/186/28 2/180/28 81/179/28
f  81/179/27 2/180/27 82/186/27
f  7/187/27 82/186/27 2/180/27
f  82/188/69 9/189/70 7/190/69
f  9/189/70 82/188/69 83/191/70
f  83/191/71 82/188/72 9/189/71
f  7/190/72 9/189/71 82/188/72
f  83/192/70 10/193/73 9/194/70
f  10/193/73 83/192/70 84/195/73
f  84/195/74 83/192/71 10/193/74
f  9/194/71 10/193/74 83/192/71
f  84/196/73 12/197/75 10/198/73
f  12/197/75 84/196/73 85/199/75
f  85/199/76 84/196/74 12/197/76
f  10/198/74 12/197/76 84/196/74
f  85/200/75 15/201/77 12/202/75
f  15/201/77 85/200/75 86/203/77
f  86/203/78 85/200/76 15/201/78
f  12/202/76 15/201/78 85/200/76
f  86/204/77 18/205/79 15/206/77
f  18/205/79 86/204/77 87/207/79
f  87/207/80 86/204/78 18/205/80
f  15/206/78 18/205/80 86/204/78
f  87/208/79 23/209/81 18/210/79
f  23/209/81 87/208/79 88/211/81
f  88/211/82 87/208/80 23/209/82
f  18/210/80 23/209/82 87/208/80
f  23/212/81 89/213/83 41/214/83
f  89/213/83 23/212/81 88/215/81
f  88/215/82 23/212/82 89/213/84
f  41/214/84 89/213/84 23/212/82
f  41/216/83 90/217/85 43/218/85
f  90/217/85 41/216/83 89/219/83
f  89/219/84 41/216/84 90/217/86
f  43/218/86 90/217/86 41/216/84
f  43/220/85 47/221/3 45/222/3
f  47/221/3 43/220/85 90/223/85
f  90/223/86 43/220/86 47/221/5
f  45/222/5 47/221/5 43/220/86
f  56/224/2 58/225/2 57/226/2
f  58/225/2 56/224/2 59/227/2
f  59/227/2 56/224/2 60/228/2
f  60/228/2 56/224/2 61/229/2
f  61/229/2 56/224/2 62/230/2
f  62/230/2 56/224/2 55/231/2
f  62/230/2 55/231/2 63/232/2
f  63/232/2 55/231/2 54/233/2
f  63/232/2 54/233/2 53/234/2
f  63/232/2 53/234/2 64/235/2
f  64/235/2 53/234/2 52/236/2
f  64/235/2 52/236/2 65/237/2
f  65/237/2 52/236/2 66/238/2
f  66/238/2 52/236/2 51/239/2
f  66/238/2 51/239/2 67/240/2
f  67/240/2 51/239/2 68/241/2
f  87/242/2 68/241/2 51/239/2
f  87/242/2 51/239/2 50/243/2
f  87/242/2 69/244/2 68/241/2
f  86/245/2 70/246/2 87/242/2
f  87/242/2 70/246/2 69/244/2
f  87/242/2 50/243/2 88/247/2
f  88/247/2 50/243/2 49/248/2
f  88/247/2 49/248/2 89/249/2
f  89/249/2 49/248/2 48/250/2
f  89/249/2 48/250/2 90/251/2
f  90/251/2 48/250/2 46/252/2
f  90/251/2 46/252/2 47/253/2
f  86/245/2 71/254/2 70/246/2
f  86/245/2 72/255/2 71/254/2
f  85/256/2 73/257/2 72/255/2
f  85/256/2 72/255/2 86/245/2
f  84/258/2 74/259/2 85/256/2
f  85/256/2 74/259/2 73/257/2
f  83/260/2 75/261/2 84/258/2
f  84/258/2 75/261/2 74/259/2
f  82/262/2 75/261/2 83/260/2
f  75/261/2 82/262/2 76/263/2
f  81/264/2 76/263/2 82/262/2
f  76/263/2 78/265/2 77/266/2
f  78/265/2 76/263/2 81/264/2
f  78/265/2 81/264/2 79/267/2
f  79/267/2 81/264/2 80/268/2
f  80/268/1 81/264/1 79/267/1
f  82/262/1 76/263/1 81/264/1
f  79/267/1 81/264/1 78/265/1
f  81/264/1 76/263/1 78/265/1
f  83/260/1 75/261/1 82/262/1
f  76/263/1 82/262/1 75/261/1
f  77/266/1 78/265/1 76/263/1
f  74/259/1 75/261/1 84/258/1
f  84/258/1 75/261/1 83/260/1
f  73/257/1 74/259/1 85/256/1
f  85/256/1 74/259/1 84/258/1
f  72/255/1 73/257/1 85/256/1
f  86/245/1 72/255/1 85/256/1
f  71/254/1 72/255/1 86/245/1
f  87/242/1 70/246/1 86/245/1
f  70/246/1 71/254/1 86/245/1
f  88/247/1 50/243/1 87/242/1
f  50/243/1 51/239/1 87/242/1
f  51/239/1 68/241/1 87/242/1
f  68/241/1 69/244/1 87/242/1
f  69/244/1 70/246/1 87/242/1
f  89/249/1 49/248/1 88/247/1
f  49/248/1 50/243/1 88/247/1
f  90/251/1 48/250/1 89/249/1
f  48/250/1 49/248/1 89/249/1
f  47/253/1 46/252/1 90/251/1
f  46/252/1 48/250/1 90/251/1
f  68/241/1 51/239/1 67/240/1
f  67/240/1 51/239/1 66/238/1
f  51/239/1 52/236/1 66/238/1
f  66/238/1 52/236/1 65/237/1
f  65/237/1 52/236/1 64/235/1
f  52/236/1 53/234/1 64/235/1
f  64/235/1 53/234/1 63/232/1
f  53/234/1 54/233/1 63/232/1
f  54/233/1 55/231/1 63/232/1
f  63/232/1 55/231/1 62/230/1
f  55/231/1 56/224/1 62/230/1
f  62/230/1 56/224/1 61/229/1
f  61/229/1 56/224/1 60/228/1
f  60/228/1 56/224/1 59/227/1
f  59/227/1 56/224/1 58/225/1
f  57/226/1 58/225/1 56/224/1

