# File produced by Open Asset Import Library (http://www.assimp.sf.net)
# (assimp v3.1.187496374)

mtllib smallBox.obj.mtl

# 8 vertex positions
v  -0.5 0.5 0
v  0.5 -0.5 0
v  -0.5 -0.5 0
v  0.5 0.5 0
v  0.5 0.5 1
v  0.5 -0.5 1
v  -0.5 -0.5 1
v  -0.5 0.5 1

# 28 UV coordinates
vt 0.82021 0.82021 0
vt -0.82021 -0.82021 0
vt 0.82021 -0.82021 0
vt -0.82021 0.82021 0
vt 0 -0.82021 0
vt -1.64042 0.82021 0
vt -1.64042 -0.82021 0
vt 0 0.82021 0
vt -0.82021 0 0
vt 0.82021 -1.64042 0
vt 0.82021 0 0
vt -0.82021 -1.64042 0
vt 1.64042 -0.82021 0
vt 1.64042 0.82021 0
vt -1.64042 1.64042 0
vt 1.64042 1.64042 0
vt -1.64042 -1.64042 0
vt 1.64042 -1.64042 0
vt 5.92119e-15 1.64042 0
vt 5.92119e-15 -1.64042 0
vt -3.28084 1.64042 0
vt -3.28084 -1.64042 0
vt -1.64042 -3.28084 0
vt -1.64042 0 0
vt 1.64042 -3.28084 0
vt 1.64042 0 0
vt 3.28084 -1.64042 0
vt 3.28084 1.64042 0

# 6 vertex normals
vn 0 0 -0.0254
vn 0.0254 0 0
vn -0 -0.0254 0
vn -0.0254 0 0
vn 0 0.0254 0
vn -0 -0 0.0254

# Mesh 'SketchUp_ID2' with 12 faces
g SketchUp_ID2
usemtl ID3
f  1/1/1 2/2/1 3/3/1
f  2/2/1 1/1/1 4/4/1
f  2/5/2 5/6/2 6/7/2
f  5/6/2 2/5/2 4/8/2
f  2/9/3 7/10/3 3/11/3
f  7/10/3 2/9/3 6/12/3
f  1/8/4 7/13/4 8/14/4
f  7/13/4 1/8/4 3/5/4
f  5/10/5 1/9/5 8/12/5
f  1/9/5 5/10/5 4/11/5
f  5/1/6 7/2/6 6/3/6
f  7/2/6 5/1/6 8/4/6

# Mesh 'SketchUp_ID2' with 12 faces
g SketchUp_ID2
usemtl ID12
f  4/15/6 1/16/6 2/17/6
f  3/18/6 2/17/6 1/16/6
f  4/19/4 2/20/4 5/21/4
f  6/22/4 5/21/4 2/20/4
f  6/23/5 2/24/5 7/25/5
f  3/26/5 7/25/5 2/24/5
f  3/20/2 1/19/2 7/27/2
f  8/28/2 7/27/2 1/19/2
f  4/26/3 5/25/3 1/24/3
f  8/23/3 1/24/3 5/25/3
f  8/15/1 5/16/1 7/17/1
f  6/18/1 7/17/1 5/16/1

