# File produced by Open Asset Import Library (http://www.assimp.sf.net)
# (assimp v3.1.187496374)

mtllib tunnel.obj.mtl

# 66 vertex positions
v  2.5 -1.25 3.60956e-16
v  2.5 1.25 2
v  2.5 -1.25 2
v  2.5 1.25 2.70717e-16
v  2.5 5.41434e-16 1.80478e-16
v  -2.5 -1.25 2
v  -2.5 1.25 2
v  -2.5 -1.25 3.60956e-16
v  2.5 -2.5 -6.31673e-16
v  -2.5 -2.5 -6.31673e-16
v  -2.5 -5.41434e-16 -2.70717e-16
v  -2.5 1.25 -3.60956e-16
v  -2.5 2.5 -1.71454e-15
v  2.5 2.5 -1.71454e-15
v  -2.5 -2.5 2
v  2.5 -2.5 2
v  2.5 2.5 2
v  -2.5 2.5 2
v  2.5 -1.875 2
v  -2.5 -1.875 2
v  -2.5 1.875 2
v  2.5 1.875 2
v  -2.5 2.60173 3.72438
v  -2.5 9.02389e-16 4
v  -2.5 2.23686 4.52
v  -2.5 0.505776 3.93064
v  -2.5 0.974214 3.7277
v  -2.5 1.37073 3.40616
v  -2.5 2.69264 2.85383
v  -2.5 -2.60173 3.72438
v  -2.5 -0.505776 3.93064
v  -2.5 -2.23686 4.52
v  -2.5 -0.974214 3.7277
v  -2.5 -1.37073 3.40616
v  -2.5 -2.69264 2.85383
v  -2.5 -1.63643 5.15689
v  -2.5 -0.863692 5.56798
v  -2.5 0.863692 5.56798
v  -2.5 1.63643 5.15689
v  -2.5 7.21911e-16 5.71
v  -2.5 -1.66606 2.98974
v  -2.5 -1.83839 2.50919
v  -2.5 1.66606 2.98974
v  -2.5 1.83839 2.50919
v  2.5 -2.69264 2.85383
v  2.5 -2.60173 3.72438
v  2.5 -2.23686 4.52
v  2.5 -1.63643 5.15689
v  2.5 -0.863692 5.56798
v  2.5 7.21911e-16 5.71
v  2.5 0.863692 5.56798
v  2.5 1.63643 5.15689
v  2.5 2.23686 4.52
v  2.5 2.60173 3.72438
v  2.5 2.69264 2.85383
v  2.5 1.83839 2.50919
v  2.5 1.66606 2.98974
v  2.5 1.37073 3.40616
v  2.5 0.974214 3.7277
v  2.5 0.505776 3.93064
v  2.5 9.02389e-16 4
v  2.5 -0.505776 3.93064
v  2.5 -0.974214 3.7277
v  2.5 -1.37073 3.40616
v  2.5 -1.66606 2.98974
v  2.5 -1.83839 2.50919

# 139 UV coordinates
vt -1.18424e-15 -4.10105 0
vt -6.56168 4.10105 0
vt -6.56168 -4.10105 0
vt -8.88178e-16 4.10105 0
vt -5.92119e-16 1.77636e-15 0
vt 8.2021 4.10105 0
vt -8.2021 -4.10105 0
vt 8.2021 -4.10105 0
vt -8.2021 4.10105 0
vt -8.2021 -8.2021 0
vt 8.2021 -8.2021 0
vt 8.2021 -1.77636e-15 0
vt -8.2021 1.77636e-15 0
vt 8.2021 8.2021 0
vt -8.2021 8.2021 0
vt -1.18424e-15 4.10105 0
vt 6.56168 -4.10105 0
vt 6.56168 4.10105 0
vt 1.18424e-15 -4.10105 0
vt -8.88178e-16 -1.77636e-15 0
vt -8.2021 1.39148e-14 0
vt 8.2021 -6.56168 0
vt 8.2021 1.39148e-14 0
vt -8.2021 -6.56168 0
vt -8.2021 2.04281e-14 0
vt 8.2021 2.04281e-14 0
vt 8.2021 -6.15158 0
vt -8.2021 -6.15158 0
vt -8.2021 6.15158 0
vt 8.2021 6.15158 0
vt 6.56168 -8.2021 0
vt 6.56168 -6.15158 0
vt -2.07242e-15 -8.2021 0
vt -6.56168 -8.2021 0
vt -6.56168 -6.15158 0
vt -1.67767e-15 -4.10105 0
vt 1.57898e-15 -8.2021 0
vt 6.56168 8.2021 0
vt 6.56168 6.15158 0
vt -5.62513e-15 8.2021 0
vt -6.56168 8.2021 0
vt -6.56168 6.15158 0
vt -1.38161e-15 4.10105 0
vt 5.1317e-15 8.2021 0
vt 12.2191 8.53586 0
vt 13.1234 2.9606e-15 0
vt 14.8294 7.33877 0
vt 12.8958 1.65937 0
vt 12.23 3.19624 0
vt 11.175 4.49715 0
vt 9.36296 8.83411 0
vt 12.2191 -8.53586 0
vt 12.8958 -1.65937 0
vt 14.8294 -7.33877 0
vt 12.23 -3.19624 0
vt 11.175 -4.49715 0
vt 9.36296 -8.83411 0
vt 16.9189 -5.36888 0
vt 18.2677 -2.83363 0
vt 18.2677 2.83363 0
vt 16.9189 5.36888 0
vt 18.7336 2.36848e-15 0
vt 9.80885 -5.46607 0
vt 8.23227 -6.03145 0
vt 9.80885 5.46607 0
vt 8.23227 6.03145 0
vt 35 16.4042 0
vt 32.0833 0 0
vt 35 0 0
vt 32.0833 16.4042 0
vt 29.1667 0 0
vt 29.1667 16.4042 0
vt 26.25 1.77636e-15 0
vt 26.25 16.4042 0
vt 23.3333 0 0
vt 23.3333 16.4042 0
vt 20.4167 16.4042 0
vt 20.4167 0 0
vt 17.5 16.4042 0
vt 17.5 1.77636e-15 0
vt 14.5833 16.4042 0
vt 14.5833 0 0
vt 11.6667 16.4042 0
vt 11.6667 1.77636e-15 0
vt 8.75 0 0
vt 8.75 16.4042 0
vt 5.83333 0 0
vt 5.83333 16.4042 0
vt 2.91667 -1.77636e-15 0
vt 2.91667 16.4042 0
vt -1.42108e-14 -1.77636e-15 0
vt -1.42108e-14 16.4042 0
vt 20 16.4042 0
vt 18.3333 1.77636e-15 0
vt 20 1.77636e-15 0
vt 18.3333 16.4042 0
vt 16.6667 1.77636e-15 0
vt 16.6667 16.4042 0
vt 15 0 0
vt 15 16.4042 0
vt 13.3333 16.4042 0
vt 13.3333 0 0
vt 11.6667 3.55271e-15 0
vt 10 16.4042 0
vt 10 1.77636e-15 0
vt 8.33333 16.4042 0
vt 8.33333 0 0
vt 6.66667 16.4042 0
vt 6.66667 0 0
vt 5 16.4042 0
vt 5 0 0
vt 3.33333 0 0
vt 3.33333 16.4042 0
vt 1.66667 0 0
vt 1.66667 16.4042 0
vt 7.99361e-15 0 0
vt 7.99361e-15 16.4042 0
vt -18.2677 -2.83363 0
vt -18.2677 2.83363 0
vt -18.7336 2.36848e-15 0
vt -16.9189 -5.36888 0
vt -16.9189 5.36888 0
vt -14.8294 7.33877 0
vt -14.8294 -7.33877 0
vt -12.2191 -8.53586 0
vt -13.1234 2.9606e-15 0
vt -12.2191 8.53586 0
vt -12.8958 -1.65937 0
vt -12.23 -3.19624 0
vt -11.175 -4.49715 0
vt -9.36296 -8.83411 0
vt -12.8958 1.65937 0
vt -12.23 3.19624 0
vt -11.175 4.49715 0
vt -9.36296 8.83411 0
vt -9.80885 5.46607 0
vt -8.23227 6.03145 0
vt -9.80885 -5.46607 0
vt -8.23227 -6.03145 0

# 40 vertex normals
vn 0.0254 0 0
vn 0 0 0.0254
vn 7.64023e-19 5.95938e-18 -0.0254
vn 1.83365e-18 -1.69613e-17 -0.0254
vn -0.0254 0 0
vn 0 -0.0254 3.66731e-17
vn 0 0.0254 4.58414e-17
vn 1.46056e-34 -2.05369e-16 0.0254
vn -1.05899e-33 2.34708e-16 0.0254
vn 0 1.76031e-16 0.0254
vn 0.0254 5.88177e-33 -1.52805e-18
vn 3.97756e-35 -2.93385e-17 0.0254
vn 0.0254 -1.51184e-32 -1.52805e-18
vn -3.54526e-21 -0.0247772 -0.00559011
vn -1.79643e-21 -0.0253559 -0.00149588
vn 0 -0.0244999 0.00670194
vn 0 -0.0210639 0.014194
vn 0 -0.0154099 0.0201914
vn 0 -0.00813318 0.0240627
vn 0 1.45548e-17 0.0254
vn 0 0.00813318 0.0240627
vn 0 0.0154099 0.0201914
vn 0 0.0210639 0.014194
vn 0 0.0244999 0.00670194
vn -1.79643e-21 0.0253559 -0.00149588
vn -3.54526e-21 0.0247772 -0.00559011
vn 0 -0.0253346 -0.00182166
vn 0 -0.0248522 -0.00524654
vn 0 -0.0225226 -0.0117428
vn 0 -0.0185302 -0.0173721
vn 0 -0.0131699 -0.021719
vn 0 -0.00683734 -0.0244624
vn 0 -4.14505e-17 -0.0254
vn 0 0.00683734 -0.0244624
vn 0 0.0131699 -0.021719
vn 0 0.0185302 -0.0173721
vn 0 0.0225226 -0.0117428
vn 0 0.0248522 -0.00524654
vn 0 0.0253346 -0.00182166
vn 0.0254 -1.26257e-33 -8.88951e-19

# Mesh 'SketchUp_ID2' with 24 faces
g SketchUp_ID2
usemtl ID3
f  1/1/1 2/2/1 3/3/1
f  2/2/1 1/1/1 4/4/1
f  4/4/1 1/1/1 5/5/1
f  2/6/2 6/7/2 3/8/2
f  6/7/2 2/6/2 7/9/2
f  8/8/3 9/10/3 10/11/3
f  9/10/3 8/8/3 1/7/3
f  1/7/3 8/8/3 11/12/3
f  1/7/3 11/12/3 5/13/3
f  12/6/4 5/13/3 11/12/3
f  5/13/3 12/6/4 4/9/4
f  4/9/4 12/6/4 13/14/4
f  4/9/4 13/14/4 14/15/4
f  12/16/5 6/17/5 7/18/5
f  6/17/5 12/16/5 8/19/5
f  8/19/5 12/16/5 11/20/5
f  9/21/6 15/22/6 10/23/6
f  15/22/6 9/21/6 16/24/6
f  17/22/7 13/25/7 18/24/7
f  13/25/7 17/22/7 14/26/7
f  19/27/8 15/10/8 16/11/8
f  15/10/8 19/27/8 20/28/8
f  17/14/9 21/29/9 22/30/9
f  21/29/9 17/14/9 18/15/9

# Mesh 'SketchUp' with 16 faces
g SketchUp
usemtl ID16
f  6/17/5 15/31/5 20/32/5
f  15/31/5 6/17/5 8/19/5
f  15/31/5 8/19/5 10/33/5
f  3/8/10 20/28/10 19/27/10
f  20/28/10 3/8/10 6/7/10
f  16/34/11 3/3/11 19/35/11
f  3/3/11 16/34/11 1/36/11
f  1/36/11 16/34/11 9/37/11
f  18/38/5 7/18/5 21/39/5
f  7/18/5 18/38/5 12/16/5
f  12/16/5 18/38/5 13/40/5
f  22/30/12 7/9/12 2/6/12
f  7/9/12 22/30/12 21/29/12
f  2/2/13 17/41/13 22/42/13
f  17/41/13 2/2/13 4/43/13
f  17/41/13 4/43/13 14/44/13

# Mesh 'SketchUp_ID36' with 96 faces
g SketchUp_ID36
usemtl ID37
f  23/45/5 24/46/5 25/47/5
f  24/46/5 23/45/5 26/48/5
f  26/48/5 23/45/5 27/49/5
f  27/49/5 23/45/5 28/50/5
f  28/50/5 23/45/5 29/51/5
f  30/52/5 25/47/5 24/46/5
f  30/52/5 24/46/5 31/53/5
f  32/54/5 25/47/5 30/52/5
f  30/52/5 31/53/5 33/55/5
f  30/52/5 33/55/5 34/56/5
f  30/52/5 34/56/5 35/57/5
f  36/58/5 25/47/5 32/54/5
f  37/59/5 38/60/5 36/58/5
f  36/58/5 38/60/5 39/61/5
f  36/58/5 39/61/5 25/47/5
f  38/60/5 37/59/5 40/62/5
f  35/57/5 34/56/5 41/63/5
f  35/57/5 41/63/5 42/64/5
f  35/57/5 42/64/5 15/31/5
f  15/31/5 42/64/5 20/32/5
f  28/50/5 29/51/5 43/65/5
f  43/65/5 29/51/5 44/66/5
f  44/66/5 29/51/5 18/38/5
f  44/66/5 18/38/5 21/39/5
f  16/67/14 35/68/15 15/69/14
f  35/68/15 16/67/14 45/70/15
f  45/70/15 30/71/16 35/68/15
f  30/71/16 45/70/15 46/72/16
f  46/72/16 32/73/17 30/71/16
f  32/73/17 46/72/16 47/74/17
f  47/74/17 36/75/18 32/73/17
f  36/75/18 47/74/17 48/76/18
f  49/77/19 36/75/18 48/76/18
f  36/75/18 49/77/19 37/78/19
f  50/79/20 37/78/19 49/77/19
f  37/78/19 50/79/20 40/80/20
f  51/81/21 40/80/20 50/79/20
f  40/80/20 51/81/21 38/82/21
f  52/83/22 38/82/21 51/81/21
f  38/82/21 52/83/22 39/84/22
f  52/83/22 25/85/23 39/84/22
f  25/85/23 52/83/22 53/86/23
f  53/86/23 23/87/24 25/85/23
f  23/87/24 53/86/23 54/88/24
f  54/88/24 29/89/25 23/87/24
f  29/89/25 54/88/24 55/90/25
f  55/90/25 18/91/26 29/89/25
f  18/91/26 55/90/25 17/92/26
f  22/93/27 44/94/28 21/95/27
f  44/94/28 22/93/27 56/96/28
f  56/96/28 43/97/29 44/94/28
f  43/97/29 56/96/28 57/98/29
f  57/98/29 28/99/30 43/97/29
f  28/99/30 57/98/29 58/100/30
f  28/99/30 59/101/31 27/102/31
f  59/101/31 28/99/30 58/100/30
f  60/83/32 27/102/31 59/101/31
f  27/102/31 60/83/32 26/103/32
f  61/104/33 26/103/32 60/83/32
f  26/103/32 61/104/33 24/105/33
f  62/106/34 24/105/33 61/104/33
f  24/105/33 62/106/34 31/107/34
f  63/108/35 31/107/34 62/106/34
f  31/107/34 63/108/35 33/109/35
f  64/110/36 33/109/35 63/108/35
f  33/109/35 64/110/36 34/111/36
f  64/110/36 41/112/37 34/111/36
f  41/112/37 64/110/36 65/113/37
f  65/113/37 42/114/38 41/112/37
f  42/114/38 65/113/37 66/115/38
f  66/115/38 20/116/39 42/114/38
f  20/116/39 66/115/38 19/117/39
f  49/118/40 51/119/40 50/120/40
f  51/119/40 49/118/40 48/121/40
f  51/119/40 48/121/40 52/122/40
f  52/122/40 48/121/40 53/123/40
f  53/123/40 48/121/40 47/124/40
f  53/123/40 47/124/40 46/125/40
f  53/123/40 46/125/40 61/126/40
f  61/126/40 54/127/40 53/123/40
f  61/126/40 46/125/40 62/128/40
f  62/128/40 46/125/40 63/129/40
f  63/129/40 46/125/40 64/130/40
f  64/130/40 46/125/40 45/131/40
f  54/127/40 61/126/40 60/132/40
f  54/127/40 60/132/40 59/133/40
f  54/127/40 59/133/40 58/134/40
f  54/127/40 58/134/40 55/135/40
f  55/135/40 58/134/40 57/136/40
f  55/135/40 57/136/40 56/137/40
f  55/135/40 56/137/40 17/41/40
f  17/41/40 56/137/40 22/42/40
f  64/130/40 45/131/40 65/138/40
f  65/138/40 45/131/40 66/139/40
f  66/139/40 45/131/40 16/34/40
f  66/139/40 16/34/40 19/35/40

