# File produced by Open Asset Import Library (http://www.assimp.sf.net)
# (assimp v3.1.187496374)

mtllib turn.obj.mtl

# 42 vertex positions
v  -2.5 -1.25 3.60956e-16
v  2.5 -2.5 3.60956e-16
v  -2.5 -2.5 3.60956e-16
v  2.5 2.5 3.60956e-16
v  -2.5 1.25 3.60956e-16
v  -2.5 2.5 3.60956e-16
v  -1.25 2.5 3.60956e-16
v  1.25 2.5 3.60956e-16
v  1.25 2.5 2
v  -1.25 2.5 2
v  2.5 2.5 2
v  2.5 -2.5 2
v  -2.5 -2.5 2
v  -2.5 -1.25 2
v  -2.5 1.25 2
v  1.25 -0.625 2
v  -1.79342 1.25535 2
v  -1.875 1.25 2
v  -1.71324 1.2713 2
v  -1.63582 1.29758 2
v  1.24465 -0.706579 2
v  -1.5625 1.33373 2
v  -1.49452 1.37915 2
v  -1.43306 1.43306 2
v  -1.37915 1.49452 2
v  -1.33373 1.5625 2
v  -1.29758 1.63582 2
v  -1.2713 1.71324 2
v  -1.25535 1.79342 2
v  -1.25 1.875 2
v  0.625 -1.25 2
v  0.706579 -1.24465 2
v  0.786762 -1.2287 2
v  0.864177 -1.20242 2
v  0.9375 -1.16627 2
v  1.00548 -1.12085 2
v  1.06694 -1.06694 2
v  1.12085 -1.00548 2
v  1.16627 -0.9375 2
v  1.20242 -0.864177 2
v  1.2287 -0.786762 2
v  -2.5 2.5 2

# 56 UV coordinates
vt 8.2021 -4.10105 0
vt -8.2021 -8.2021 0
vt 8.2021 -8.2021 0
vt -8.2021 8.2021 0
vt 8.2021 4.10105 0
vt 8.2021 8.2021 0
vt 4.10105 8.2021 0
vt -4.10105 8.2021 0
vt 4.10105 -6.56168 0
vt -4.10105 -1.18424e-15 0
vt -4.10105 -6.56168 0
vt 4.10105 -1.18424e-15 0
vt -1.18424e-15 -8.2021 0
vt -6.56168 8.2021 0
vt -6.56168 -8.2021 0
vt -1.18424e-15 8.2021 0
vt -8.2021 -1.18424e-15 0
vt 8.2021 -6.56168 0
vt 8.2021 -1.18424e-15 0
vt -8.2021 -6.56168 0
vt 1.18424e-15 4.10105 0
vt 6.56168 -4.10105 0
vt 6.56168 4.10105 0
vt 1.18424e-15 -4.10105 0
vt 4.10105 -2.05052 0
vt -5.88393 4.11859 0
vt -6.15158 4.10105 0
vt -5.62086 4.17092 0
vt -5.36687 4.25714 0
vt -8.2021 4.10105 0
vt 4.08351 -2.31817 0
vt -5.12631 4.37577 0
vt -4.90329 4.52478 0
vt -4.70163 4.70163 0
vt -4.52478 4.90329 0
vt -4.37577 5.12631 0
vt -4.25714 5.36687 0
vt -4.17092 5.62086 0
vt -4.11859 5.88393 0
vt -4.10105 6.15158 0
vt 2.05052 -4.10105 0
vt -8.2021 -4.10105 0
vt 2.31817 -4.08351 0
vt 2.58124 -4.03118 0
vt 2.83523 -3.94496 0
vt 3.07579 -3.82633 0
vt 3.2988 -3.67732 0
vt 3.50046 -3.50046 0
vt 3.67732 -3.2988 0
vt 3.82633 -3.07579 0
vt 3.94496 -2.83523 0
vt 4.03118 -2.58124 0
vt 6.56168 -8.2021 0
vt 1.18424e-15 -8.2021 0
vt 1.18424e-15 8.2021 0
vt 6.56168 8.2021 0

# 6 vertex normals
vn 0 0 -0.0254
vn 0 0.0254 0
vn 0.0254 0 0
vn 0 -0.0254 0
vn -0.0254 0 0
vn 0 0 0.0254

# Mesh 'SketchUp_ID2' with 42 faces
g SketchUp_ID2
usemtl ID3
f  1/1/1 2/2/1 3/3/1
f  2/2/1 1/1/1 4/4/1
f  4/4/1 1/1/1 5/5/1
f  4/4/1 5/5/1 6/6/1
f  4/4/1 6/6/1 7/7/1
f  4/4/1 7/7/1 8/8/1
f  9/9/2 7/10/2 10/11/2
f  7/10/2 9/9/2 8/12/2
f  2/13/3 11/14/3 12/15/3
f  11/14/3 2/13/3 4/16/3
f  2/17/4 13/18/4 3/19/4
f  13/18/4 2/17/4 12/20/4
f  5/21/5 14/22/5 15/23/5
f  14/22/5 5/21/5 1/24/5
f  16/25/6 17/26/6 18/27/6
f  17/26/6 16/25/6 19/28/6
f  19/28/6 16/25/6 20/29/6
f  20/29/6 16/25/6 9/7/6
f  15/30/6 21/31/6 16/25/6
f  15/30/6 16/25/6 18/27/6
f  20/29/6 9/7/6 22/32/6
f  22/32/6 9/7/6 23/33/6
f  23/33/6 9/7/6 24/34/6
f  24/34/6 9/7/6 25/35/6
f  25/35/6 9/7/6 26/36/6
f  26/36/6 9/7/6 27/37/6
f  27/37/6 9/7/6 28/38/6
f  28/38/6 9/7/6 29/39/6
f  29/39/6 9/7/6 30/40/6
f  30/40/6 9/7/6 10/8/6
f  31/41/6 15/30/6 14/42/6
f  15/30/6 31/41/6 32/43/6
f  15/30/6 32/43/6 33/44/6
f  15/30/6 33/44/6 34/45/6
f  15/30/6 34/45/6 35/46/6
f  15/30/6 35/46/6 36/47/6
f  15/30/6 36/47/6 37/48/6
f  15/30/6 37/48/6 38/49/6
f  15/30/6 38/49/6 39/50/6
f  15/30/6 39/50/6 40/51/6
f  15/30/6 40/51/6 41/52/6
f  15/30/6 41/52/6 21/31/6

# Mesh 'SketchUp' with 38 faces
g SketchUp
usemtl ID16
f  1/24/5 13/53/5 14/22/5
f  13/53/5 1/24/5 3/54/5
f  12/3/6 34/45/6 13/2/6
f  34/45/6 12/3/6 35/46/6
f  35/46/6 12/3/6 36/47/6
f  36/47/6 12/3/6 37/48/6
f  37/48/6 12/3/6 38/49/6
f  38/49/6 12/3/6 39/50/6
f  39/50/6 12/3/6 40/51/6
f  40/51/6 12/3/6 11/6/6
f  13/2/6 34/45/6 33/44/6
f  13/2/6 33/44/6 32/43/6
f  13/2/6 32/43/6 31/41/6
f  13/2/6 31/41/6 14/42/6
f  40/51/6 11/6/6 41/52/6
f  41/52/6 11/6/6 21/31/6
f  21/31/6 11/6/6 16/25/6
f  16/25/6 11/6/6 9/7/6
f  11/18/2 8/12/2 9/9/2
f  8/12/2 11/18/2 4/19/2
f  10/11/2 6/17/2 42/20/2
f  6/17/2 10/11/2 7/10/2
f  17/26/6 15/30/6 18/27/6
f  15/30/6 17/26/6 42/4/6
f  42/4/6 17/26/6 19/28/6
f  42/4/6 19/28/6 20/29/6
f  42/4/6 20/29/6 22/32/6
f  42/4/6 22/32/6 23/33/6
f  42/4/6 23/33/6 24/34/6
f  42/4/6 24/34/6 25/35/6
f  42/4/6 25/35/6 26/36/6
f  42/4/6 26/36/6 27/37/6
f  42/4/6 27/37/6 28/38/6
f  42/4/6 28/38/6 29/39/6
f  42/4/6 29/39/6 30/40/6
f  42/4/6 30/40/6 10/8/6
f  6/55/5 15/23/5 42/56/5
f  15/23/5 6/55/5 5/21/5

